<?xml version="1.0" standalone="no"?>
<!DOCTYPE svg PUBLIC "-//W3C//DTD SVG 20010904//EN"
 "http://www.w3.org/TR/2001/REC-SVG-20010904/DTD/svg10.dtd">
<svg version="1.0" xmlns="http://www.w3.org/2000/svg"
 width="706.000000pt" height="706.000000pt" viewBox="0 0 706.000000 706.000000"
 preserveAspectRatio="xMidYMid meet">

<g transform="translate(0.000000,706.000000) scale(0.100000,-0.100000)"
fill="#000000" stroke="none">
<path d="M3270 5340 c-273 -18 -562 -103 -827 -245 -552 -296 -925 -845 -1025
-1505 -18 -126 -16 -392 6 -530 87 -555 388 -1055 821 -1366 220 -158 371
-234 622 -313 216 -68 331 -84 588 -84 279 0 416 22 681 109 139 45 380 175
514 276 110 83 270 230 329 301 185 226 346 525 405 754 113 435 98 861 -43
1258 -66 185 -150 365 -218 467 -26 39 -43 42 -43 8 0 -23 -89 -250 -120 -306
-69 -124 -64 -106 -43 -150 17 -32 60 -164 103 -309 36 -121 58 -430 39 -555
-32 -216 -47 -282 -100 -419 -88 -229 -163 -356 -308 -519 -222 -250 -578
-447 -917 -509 -141 -26 -455 -25 -574 0 -129 28 -316 85 -379 114 -98 47
-311 176 -311 189 0 9 36 58 115 159 39 50 77 100 85 111 16 23 132 175 215
283 28 35 61 78 75 96 14 18 45 58 70 90 68 87 66 83 54 103 -6 9 -18 18 -26
20 -8 2 -66 -55 -134 -130 -65 -73 -177 -196 -249 -273 -71 -78 -172 -189
-223 -248 -51 -59 -98 -107 -105 -107 -15 0 -87 71 -87 86 0 5 86 93 190 194
105 102 267 265 361 362 137 143 169 182 164 198 -3 11 -15 20 -26 20 -18 0
-211 -160 -404 -335 -123 -112 -376 -325 -386 -325 -20 0 -158 208 -208 315
-53 111 -90 223 -131 395 -20 81 -30 303 -20 424 14 163 25 220 67 356 88 283
221 499 436 707 132 128 285 228 462 303 147 62 234 88 395 116 130 23 164 25
330 21 192 -5 356 -31 490 -78 30 -10 60 -19 67 -19 6 0 40 20 75 44 74 51
156 94 265 137 43 17 81 34 86 38 17 17 -229 124 -403 174 -47 14 -96 30 -110
35 -32 12 -246 48 -372 61 -105 12 -142 12 -318 1z"/>
<path d="M4855 5015 c-114 -17 -259 -55 -353 -94 -41 -16 -76 -32 -79 -35 -9
-8 17 -35 72 -76 59 -44 286 -258 352 -333 26 -29 51 -52 57 -52 14 0 64 150
87 260 11 50 22 147 25 218 l7 127 -39 -1 c-21 -1 -79 -7 -129 -14z"/>
<path d="M4270 4812 c-21 -7 -126 -78 -180 -122 -25 -20 -67 -41 -95 -48 -113
-29 -160 -70 -510 -441 -367 -390 -335 -366 -449 -336 -33 9 -100 22 -150 31
-50 8 -113 19 -141 25 -27 6 -60 12 -72 15 -18 3 -69 -46 -287 -277 -146 -155
-266 -285 -266 -289 0 -4 39 -15 87 -25 l87 -18 65 70 66 71 90 -19 c84 -18
336 -69 343 -69 2 0 -26 -34 -62 -75 -61 -70 -66 -79 -66 -123 0 -118 123
-162 211 -76 l39 38 63 -59 c34 -33 97 -94 139 -135 l78 -74 -37 -38 c-30 -31
-36 -45 -37 -81 -1 -24 5 -56 13 -70 20 -37 74 -61 125 -54 35 5 51 16 104 72
35 37 66 65 69 62 4 -5 19 -59 95 -349 l20 -77 -63 -71 -63 -71 13 -60 c7 -34
16 -72 21 -85 11 -28 -7 -45 377 362 l171 181 -15 64 c-9 35 -37 147 -64 249
l-48 184 78 72 c119 111 170 229 159 374 l-4 60 65 0 c211 0 392 153 447 375
11 47 26 80 45 100 34 37 119 183 119 206 0 27 -484 490 -555 531 -5 3 -17 3
-25 0z m15 -433 c56 -26 131 -108 145 -157 16 -59 12 -152 -9 -197 -23 -50
-94 -119 -143 -140 -52 -21 -146 -19 -201 4 -181 78 -224 305 -84 440 70 67
206 90 292 50z m-522 -576 c112 -108 127 -128 143 -177 15 -48 16 -62 5 -112
-35 -153 -220 -235 -360 -159 -57 31 -110 86 -135 140 -25 52 -21 142 9 201
25 50 191 237 205 232 5 -2 65 -58 133 -125z m-278 -518 c105 -99 191 -185
193 -192 4 -13 -318 -357 -350 -374 -36 -19 -78 24 -59 60 6 10 69 80 141 157
l131 139 -108 103 c-59 56 -147 138 -194 182 l-85 79 -135 -144 c-74 -79 -143
-146 -153 -149 -30 -8 -56 11 -56 42 0 22 36 66 177 216 l176 187 66 -64 c36
-35 152 -144 256 -242z"/>
<path d="M2202 3087 c-6 -6 -14 -25 -17 -40 -15 -57 69 -103 108 -59 23 25 21
68 -3 92 -22 22 -72 27 -88 7z"/>
<path d="M2472 3067 c-40 -42 -19 -111 38 -129 20 -7 67 18 80 41 40 76 -59
150 -118 88z"/>
<path d="M2026 2989 c-40 -47 -16 -99 45 -99 35 0 59 24 59 58 0 33 -8 45 -37
61 -32 16 -38 14 -67 -20z"/>
<path d="M2291 2904 c-24 -30 -24 -34 -12 -67 12 -31 64 -51 92 -36 18 9 39
47 39 70 0 19 -50 59 -74 59 -15 0 -33 -11 -45 -26z"/>
<path d="M2099 2781 c-32 -32 -35 -47 -18 -84 22 -49 86 -61 124 -22 39 38 27
102 -22 124 -37 17 -52 14 -84 -18z"/>
<path d="M3107 2480 c-21 -17 -27 -30 -27 -59 0 -69 66 -100 118 -56 78 65
-11 177 -91 115z"/>
<path d="M2967 2272 c-34 -38 -15 -96 34 -107 61 -14 103 61 59 105 -25 25
-72 26 -93 2z"/>
<path d="M3150 2190 c-11 -11 -20 -31 -20 -45 0 -30 32 -65 60 -65 27 0 70 43
70 70 0 28 -35 60 -65 60 -14 0 -34 -9 -45 -20z"/>
<path d="M2847 2090 c-21 -16 -27 -30 -27 -58 0 -43 7 -55 37 -71 34 -17 62
-13 88 14 69 68 -22 174 -98 115z"/>
<path d="M3075 2000 c-20 -23 -23 -63 -5 -85 17 -21 73 -19 93 3 10 10 17 30
17 44 0 52 -69 78 -105 38z"/>
</g>
</svg>
