<?xml version="1.0" standalone="no"?>
<!DOCTYPE svg PUBLIC "-//W3C//DTD SVG 20010904//EN"
 "http://www.w3.org/TR/2001/REC-SVG-20010904/DTD/svg10.dtd">
<svg version="1.0" xmlns="http://www.w3.org/2000/svg"
 width="300.000000pt" height="300.000000pt" viewBox="0 0 300.000000 300.000000"
 preserveAspectRatio="xMidYMid meet">
<metadata>
Created by potrace 1.10, written by Peter Selinger 2001-2011
</metadata>
<g transform="translate(0.000000,300.000000) scale(0.100000,-0.100000)"
fill="#000000" stroke="none">
<path d="M1488 2718 c-53 -62 -158 -236 -158 -261 0 -1 92 -2 203 -2 l204 0
-22 45 c-43 92 -64 127 -115 190 -28 36 -55 69 -59 73 -5 5 -29 -16 -53 -45z
m79 -50 c38 -41 80 -108 89 -142 l6 -26 -131 0 c-72 0 -131 3 -131 7 0 20 115
193 129 193 4 0 21 -15 38 -32z"/>
<path d="M1175 2531 c-213 -81 -364 -177 -504 -320 -248 -256 -373 -603 -342
-944 53 -558 462 -997 1015 -1087 153 -25 249 -25 401 0 143 23 226 50 360
118 281 141 497 387 596 679 49 146 63 234 62 398 0 166 -17 264 -73 416 -77
208 -249 430 -439 563 -95 67 -247 143 -369 186 -51 17 -95 30 -97 28 -2 -2
12 -34 30 -73 19 -38 41 -99 50 -135 l16 -67 54 -22 c29 -12 93 -49 142 -81
208 -138 348 -328 425 -580 29 -96 36 -309 14 -419 -73 -357 -297 -620 -641
-749 -32 -12 -208 -52 -212 -48 -2 2 -10 72 -18 157 -9 85 -18 172 -20 194 -3
22 -9 89 -15 149 -12 120 -14 126 -36 126 -14 0 -15 -33 -9 -282 3 -156 8
-298 11 -316 l5 -32 -46 0 -46 0 6 163 c3 89 8 228 10 310 5 128 3 148 -10
153 -9 4 -18 5 -20 2 -2 -2 -11 -71 -19 -153 -23 -224 -35 -333 -42 -402 -5
-45 -11 -63 -21 -63 -32 0 -188 43 -241 67 -118 52 -238 136 -330 232 -92 96
-183 260 -228 407 -25 80 -27 105 -28 249 -1 125 3 176 18 235 26 104 112 280
180 370 51 67 219 230 238 230 4 0 27 14 52 30 24 17 63 39 87 49 40 18 43 22
61 92 10 41 32 102 48 138 17 35 29 65 28 67 -2 1 -48 -14 -103 -35z m771 -59
c201 -84 305 -152 439 -288 101 -103 114 -120 175 -219 148 -241 202 -552 145
-825 -89 -421 -393 -756 -801 -884 -429 -133 -906 -13 -1217 309 -113 116
-198 255 -255 417 -99 279 -91 559 23 834 108 261 318 481 580 609 61 29 123
57 139 61 26 6 28 5 22 -12 -4 -10 -16 -46 -27 -79 -24 -75 -27 -78 -67 -99
-203 -104 -382 -290 -483 -501 -76 -159 -94 -240 -93 -430 0 -134 3 -174 23
-245 32 -122 109 -277 185 -375 70 -89 184 -198 229 -218 15 -6 27 -14 27 -17
0 -17 198 -103 291 -127 l105 -27 30 21 29 21 28 -24 c38 -33 83 -31 119 3
l28 27 23 -22 c13 -12 36 -22 53 -22 38 0 195 42 258 70 90 38 218 122 288
188 387 366 438 931 121 1357 -97 130 -240 248 -393 325 -25 13 -48 28 -52 34
-9 14 -48 140 -48 155 0 15 -3 15 76 -17z"/>
<path d="M1316 2371 c-20 -8 -46 -76 -46 -123 0 -14 -11 -48 -25 -75 -39 -75
-46 -139 -45 -427 1 -147 0 -269 -2 -271 -2 -2 -28 -18 -58 -37 -30 -18 -85
-53 -122 -77 l-68 -43 0 -234 c0 -129 2 -234 5 -234 3 0 23 12 45 26 39 26 40
28 40 83 0 63 -15 48 147 149 45 29 84 52 86 52 2 0 2 -25 -1 -55 -4 -50 -2
-57 26 -85 17 -16 38 -30 47 -30 29 0 75 55 75 89 l0 31 115 0 115 0 0 -29 c0
-43 9 -60 42 -77 24 -12 33 -13 55 -2 40 19 54 54 47 111 -3 26 -3 47 0 47 3
0 43 -24 88 -53 46 -30 98 -62 116 -73 30 -17 32 -21 32 -76 0 -56 0 -57 45
-88 l45 -31 0 238 -1 238 -82 52 c-45 28 -103 64 -129 79 l-48 29 0 84 c0 98
-20 150 -78 207 -34 33 -35 35 -16 49 10 8 22 15 26 15 4 0 21 29 39 65 29 59
31 71 27 138 -3 53 -12 87 -31 123 -14 27 -28 72 -32 99 -10 78 -23 112 -48
119 -32 8 -408 6 -431 -3z m411 -46 c15 -10 23 -30 28 -67 4 -29 19 -78 33
-108 51 -111 39 -216 -37 -302 -17 -20 -31 -41 -31 -48 0 -7 18 -36 39 -64 53
-68 61 -93 61 -185 l0 -79 39 -33 c21 -19 77 -58 124 -88 51 -32 88 -62 91
-75 8 -29 8 -241 0 -249 -4 -3 -26 10 -49 31 -24 20 -86 61 -139 91 l-96 54 0
77 c0 43 -3 86 -6 95 -8 20 -56 45 -89 45 -31 0 -31 1 3 52 23 35 27 52 27
108 0 58 -4 72 -28 103 -44 58 -78 71 -197 75 -96 4 -107 2 -132 -18 -27 -21
-28 -25 -28 -117 0 -89 2 -101 30 -150 l30 -53 -36 0 c-26 0 -43 -8 -65 -30
-28 -27 -30 -35 -29 -92 1 -35 1 -70 1 -79 -1 -9 -46 -43 -108 -80 -60 -35
-123 -79 -141 -98 l-33 -36 3 145 3 145 108 72 c60 39 115 80 121 90 10 13 15
104 19 327 l7 310 30 64 c16 35 30 74 30 87 0 36 20 84 38 88 9 3 94 5 187 6
136 1 175 -2 192 -14z m-100 -628 c42 -23 63 -64 63 -126 0 -44 -5 -56 -36
-91 -47 -52 -95 -65 -166 -48 -43 11 -57 20 -81 54 -27 38 -29 48 -29 130 1
49 1 93 1 98 2 16 213 2 248 -17z m123 -476 c0 -129 -3 -161 -15 -171 -12 -10
-18 -10 -30 0 -12 10 -15 38 -15 136 l0 124 -158 0 -158 0 4 -105 c5 -118 0
-150 -25 -159 -35 -14 -43 20 -43 181 l0 153 220 0 220 0 0 -159z m-102 -18
l3 -53 -115 0 -116 0 0 55 0 56 113 -3 112 -3 3 -52z"/>
<path d="M1455 2216 c-66 -28 -125 -122 -125 -196 1 -61 72 -156 137 -181 72
-27 171 5 227 74 41 51 49 143 17 204 -47 94 -165 139 -256 99z m155 -45 c54
-28 80 -74 80 -138 0 -75 -16 -103 -81 -142 -66 -40 -155 -21 -205 45 -39 50
-41 132 -5 182 50 70 138 92 211 53z"/>
<path d="M1248 899 c-35 -20 -19 -79 21 -79 48 0 68 42 35 74 -18 18 -32 20
-56 5z"/>
<path d="M1766 897 c-25 -18 -18 -67 11 -78 16 -6 29 -3 45 11 22 18 22 20 8
47 -18 32 -38 39 -64 20z"/>
<path d="M1116 778 c-21 -30 -4 -60 32 -56 34 4 44 45 16 65 -24 18 -30 17
-48 -9z"/>
<path d="M1896 778 c-27 -39 18 -80 52 -46 18 18 14 46 -7 58 -26 14 -28 13
-45 -12z"/>
<path d="M1226 739 c-19 -27 -11 -47 22 -56 18 -4 29 -1 39 12 17 24 16 30 -3
49 -21 22 -40 20 -58 -5z"/>
<path d="M1779 736 c-9 -20 -9 -29 1 -41 28 -34 87 5 64 43 -18 28 -52 27 -65
-2z"/>
<path d="M1065 660 c-14 -43 44 -67 68 -28 8 12 7 21 -2 32 -19 23 -58 20 -66
-4z"/>
<path d="M1935 669 c-4 -5 -4 -21 -1 -35 5 -17 13 -24 31 -24 29 0 47 27 34
52 -11 20 -54 24 -64 7z"/>
<path d="M1196 614 c-31 -30 -13 -74 30 -74 23 0 54 24 54 41 0 14 -38 49 -54
49 -8 0 -22 -7 -30 -16z"/>
<path d="M1805 606 c-23 -34 -5 -66 36 -66 41 0 61 40 34 70 -24 27 -51 25
-70 -4z"/>
</g>
</svg>
